TITLE ""
FILE "Disc4Track27.mp3" MP3
  TRACK 01 AUDIO
    TITLE "Disc4Track27_01"
    INDEX 01 00:00:00
  TRACK 02 AUDIO
    TITLE "Disc4Track27_02"
    INDEX 01 00:01:27
  TRACK 03 AUDIO
    TITLE "Disc4Track27_03"
    INDEX 01 00:03:69
  TRACK 04 AUDIO
    TITLE "Disc4Track27_04"
    INDEX 01 00:05:33
  TRACK 05 AUDIO
    TITLE "Disc4Track27_05"
    INDEX 01 00:09:05
  TRACK 06 AUDIO
    TITLE "Disc4Track27_06"
    INDEX 01 00:09:39
  TRACK 07 AUDIO
    TITLE "Disc4Track27_07"
    INDEX 01 00:10:71
  TRACK 08 AUDIO
    TITLE "Disc4Track27_08"
    INDEX 01 00:12:15
  TRACK 09 AUDIO
    TITLE "Disc4Track27_09"
    INDEX 01 00:13:50
  TRACK 10 AUDIO
    TITLE "Disc4Track27_10"
    INDEX 01 00:14:14
  TRACK 11 AUDIO
    TITLE "Disc4Track27_11"
    INDEX 01 00:15:47
  TRACK 12 AUDIO
    TITLE "Disc4Track27_12"
    INDEX 01 00:18:14
  TRACK 13 AUDIO
    TITLE "Disc4Track27_13"
    INDEX 01 00:19:43
  TRACK 14 AUDIO
    TITLE "Disc4Track27_14"
    INDEX 01 00:21:40
  TRACK 15 AUDIO
    TITLE "Disc4Track27_15"
    INDEX 01 00:22:06
  TRACK 16 AUDIO
    TITLE "Disc4Track27_16"
    INDEX 01 00:23:49
  TRACK 17 AUDIO
    TITLE "Disc4Track27_17"
    INDEX 01 00:24:66
  TRACK 18 AUDIO
    TITLE "Disc4Track27_18"
    INDEX 01 00:26:35
  TRACK 19 AUDIO
    TITLE "Disc4Track27_19"
    INDEX 01 00:26:72
  TRACK 20 AUDIO
    TITLE "Disc4Track27_20"
    INDEX 01 00:28:36
  TRACK 21 AUDIO
    TITLE "Disc4Track27_21"
    INDEX 01 00:30:72
  TRACK 22 AUDIO
    TITLE "Disc4Track27_22"
    INDEX 01 00:32:34
  TRACK 23 AUDIO
    TITLE "Disc4Track27_23"
    INDEX 01 00:32:71
  TRACK 24 AUDIO
    TITLE "Disc4Track27_24"
    INDEX 01 00:34:37
  TRACK 25 AUDIO
    TITLE "Disc4Track27_25"
    INDEX 01 00:36:57
  TRACK 26 AUDIO
    TITLE "Disc4Track27_26"
    INDEX 01 00:38:25
  TRACK 27 AUDIO
    TITLE "Disc4Track27_27"
    INDEX 01 00:38:60
  TRACK 28 AUDIO
    TITLE "Disc4Track27_28"
    INDEX 01 00:40:22
  TRACK 29 AUDIO
    TITLE "Disc4Track27_29"
    INDEX 01 00:43:73
  TRACK 30 AUDIO
    TITLE "Disc4Track27_30"
    INDEX 01 00:45:33
  TRACK 31 AUDIO
    TITLE "Disc4Track27_31"
    INDEX 01 00:51:19
  TRACK 32 AUDIO
    TITLE "Disc4Track27_32"
    INDEX 01 00:51:51
  TRACK 33 AUDIO
    TITLE "Disc4Track27_33"
    INDEX 01 00:53:20
  TRACK 34 AUDIO
    TITLE "Disc4Track27_34"
    INDEX 01 00:54:35
  TRACK 35 AUDIO
    TITLE "Disc4Track27_35"
    INDEX 01 00:56:05
  TRACK 36 AUDIO
    TITLE "Disc4Track27_36"
    INDEX 01 00:56:42
  TRACK 37 AUDIO
    TITLE "Disc4Track27_37"
    INDEX 01 00:58:06
  TRACK 38 AUDIO
    TITLE "Disc4Track27_38"
    INDEX 01 00:59:31
  TRACK 39 AUDIO
    TITLE "Disc4Track27_39"
    INDEX 01 01:00:65
  TRACK 40 AUDIO
    TITLE "Disc4Track27_40"
    INDEX 01 01:05:02
  TRACK 41 AUDIO
    TITLE "Disc4Track27_41"
    INDEX 01 01:05:33
  TRACK 42 AUDIO
    TITLE "Disc4Track27_42"
    INDEX 01 01:06:56
  TRACK 43 AUDIO
    TITLE "Disc4Track27_43"
    INDEX 01 01:08:14
  TRACK 44 AUDIO
    TITLE "Disc4Track27_44"
    INDEX 01 01:09:35
